<svg xmlns="http://www.w3.org/2000/svg" viewBox="0 0 225.04 57.66"><defs><style>.cls-1{fill:#fff;}</style></defs><g id="Layer_2" data-name="Layer 2"><g id="Layer_1-2" data-name="Layer 1"><path class="cls-1" d="M111.65,28.32c0,8.74,0,17.49,0,26.23,0,1.34-.24,1.85-1.73,1.81-4.4-.11-8.81-.08-13.22,0a2.13,2.13,0,0,1-2.17-1.27Q87,41.67,79.39,28.3q-4.81-8.51-9.66-17A2.87,2.87,0,0,0,68.59,10c-1.46-.59-2.13.05-1.92,1.62A10.7,10.7,0,0,1,66.75,13c0,13.87,0,27.75.11,41.63,0,1.34-.35,1.78-1.7,1.7a40.85,40.85,0,0,0-5.42,0c-1.48.11-1.76-.47-1.75-1.81,0-8.93,0-17.86,0-26.79,0-8.65,0-17.3,0-25.95C58,.37,58.43,0,59.82,0c4,.08,8.06,0,12.1,0a1.76,1.76,0,0,1,1.76,1Q86.49,23,99.37,44.94A3,3,0,0,0,101,46.39c2,.37,2.13.13,2.13-1.86,0-6.52,0-13,0-19.57Q103,13.38,102.8,1.8c0-1.42.43-1.87,1.82-1.79a54.47,54.47,0,0,0,5.57,0c1.18,0,1.48.4,1.48,1.52C111.63,10.46,111.65,19.39,111.65,28.32Z"/><path class="cls-1" d="M225,29c-.48,2.16-1,4.42-1.48,6.67s-1,4.61-1.6,6.87a6.85,6.85,0,0,1-1.45,2.76c-2.57,2.8-5.23,5.51-7.92,8.19a4.76,4.76,0,0,1-2,1.18c-3.48,1-7,1.78-10.49,2.73a7,7,0,0,1-3.93,0c-3.72-1.06-7.47-2-11.19-3.09a3.68,3.68,0,0,1-1.66-1q-4.08-4.44-8.05-9a4.52,4.52,0,0,1-1-1.85c-1-4-1.94-8-2.83-12.09a4.09,4.09,0,0,1,.2-2.07c2.09-6.23,4.26-12.45,6.35-18.69a4,4,0,0,1,2.5-2.79C186,4.71,191.42,2.41,196.91.26a4.55,4.55,0,0,1,2.56-.14c3.94.94,7.85,2,11.76,3.05a3.46,3.46,0,0,1,1.59.9q4.29,4.6,8.47,9.31a3.83,3.83,0,0,1,.72,1.69c1,4.25,1.92,8.51,2.87,12.76C225,28.18,225,28.54,225,29Zm-9.33.34c-.06-.37-.09-.64-.14-.9-.43-2.32-1-4.63-1.26-7a8.59,8.59,0,0,0-2.64-5.21c-.53-.54-1-1.18-1.51-1.7-1.32-1.27-2.16-3-4.25-3.47S202,9.92,200,9.5a5.75,5.75,0,0,0-2.94.19c-3.15,1.14-6.22,2.48-9.36,3.65A2.37,2.37,0,0,0,186,15c-1.45,4.72-3,9.42-4.39,14.14a2.89,2.89,0,0,0,0,1.67q2.13,6.41,4.37,12.77a2,2,0,0,0,1,1.11q5.39,2.35,10.82,4.58a2.24,2.24,0,0,0,1.53,0c3.55-1.45,7.09-2.93,10.6-4.48a2.56,2.56,0,0,0,1.26-1.35c1.36-3.9,2.65-7.83,3.94-11.76C215.32,30.88,215.51,30.06,215.71,29.34Z"/><path class="cls-1" d="M0,17.76C0,12.39.06,7,0,1.65,0,.43.33,0,1.59,0c2,.09,4,.08,6,0C8.75,0,9.09.4,9.09,1.57c0,10.2-.22,20.4.08,30.58.11,3.7,1.37,7.37,2.19,11,.09.41.69.82,1.15,1,3.27,1.45,6.58,2.82,9.84,4.28a1.49,1.49,0,0,0,2-.42c4.2-4.45,8.45-8.86,12.6-13.35a3.58,3.58,0,0,0,.74-2.27q.08-15.3,0-30.59c0-1.44.41-1.93,1.85-1.84C41.34.12,43.19.07,45,0c1,0,1.43.23,1.42,1.33q0,16.49,0,33a2,2,0,0,1,0,.6c-1.51,4.88-3,9.77-4.57,14.63a2.2,2.2,0,0,1-1.2,1c-5.33,2.33-10.66,4.65-16,6.88a3.15,3.15,0,0,1-2.24,0c-5.93-2.58-11.8-5.28-17.71-7.89A2.51,2.51,0,0,1,3,47.67C2.11,43.56,1.14,39.45.25,35.34A12.34,12.34,0,0,1,0,32.83Q0,25.3,0,17.76Z"/><path class="cls-1" d="M149.8,32.58c0,7.61,0,15.22,0,22.82,0,1.27-.4,1.65-1.62,1.59a36.86,36.86,0,0,0-4.93,0c-1.49.11-1.94-.34-1.94-1.89.07-14.77,0-29.53,0-44.3a9.43,9.43,0,0,1,0-1.19c.13-1.06-.34-1.36-1.37-1.35-5.22,0-10.45,0-15.68,0-1.19,0-1.6-.33-1.53-1.53a37.48,37.48,0,0,0,0-4.62c-.09-1.24.45-1.5,1.56-1.5,8.12,0,16.24,0,24.36,0,6,0,12,0,17.93,0,1.26,0,1.82.29,1.72,1.66a33.34,33.34,0,0,0,0,4.47c.08,1.18-.33,1.54-1.52,1.53-5.08-.06-10.16,0-15.24-.06-1.42,0-1.86.34-1.84,1.81C149.84,17.57,149.8,25.07,149.8,32.58Z"/></g></g></svg>